<?xml version="1.0" encoding="UTF-8" standalone="no"?>
<svg width="165px" height="165px" viewBox="0 0 165 165" version="1.1" xmlns="http://www.w3.org/2000/svg" xmlns:xlink="http://www.w3.org/1999/xlink" xmlns:sketch="http://www.bohemiancoding.com/sketch/ns">
    <!-- Generator: Sketch 3.4 (15575) - http://www.bohemiancoding.com/sketch -->
    <title>RST</title>
    <desc>Created with Sketch.</desc>
    <defs></defs>
    <g id="Page-1" stroke="none" stroke-width="1" fill="none" fill-rule="evenodd" sketch:type="MSPage">
        <g id="RST" sketch:type="MSLayerGroup">
            <path d="M141.462182,103.725879 L23.4034848,103.725879 L23.4034848,61.4059394 L141.462182,61.4059394 L141.462182,103.725879 Z" id="Fill-1" fill="#44B1C8" sketch:type="MSShapeGroup"></path>
            <text id="REST" sketch:type="MSTextLayer" font-family="Helvetica" font-size="26" font-weight="bold" fill="#FFFFFF">
                <tspan x="49.2683455" y="92.3343788">REST</tspan>
            </text>
            <g id="Group-10" sketch:type="MSShapeGroup">
                <path d="M24.8683091,77.8799303 C25.3235515,72.1126879 26.6892788,66.5894152 28.7491879,61.4056879 L2.01815758,61.4056879 C1.13533939,64.7659303 0.458763636,68.2066576 0.00100606061,71.7203242 L11.3946424,77.6535667 C11.2839758,79.2783545 11.2085212,80.913203 11.2085212,82.5656576 C11.2085212,84.2206273 11.2839758,85.8554758 11.3946424,87.4802636 L0.00100606061,93.4135061 C0.458763636,96.9246576 1.13533939,100.365385 2.01815758,103.728142 L28.6988848,103.728142 C25.580097,95.8129606 24.1439455,87.0526879 24.8683091,77.8799303" id="Fill-2" fill="#44B1C8"></path>
                <path d="M134.103352,108.228 C125.265109,125.874303 107.638927,138.512939 87.1203212,140.132697 C62.4869273,142.074394 40.7912303,128.542879 30.6954121,108.228 L16.0345939,108.228 C16.831897,110.295455 17.6895636,112.335242 18.6704727,114.304606 L10.4207758,124.138848 C12.2442606,127.290333 14.2639273,130.313545 16.4722303,133.185848 L28.7285636,129.322576 C30.8840485,131.79497 33.2030182,134.116455 35.6779273,136.271939 L31.8121394,148.525758 C34.6869576,150.736576 37.7101697,152.756242 40.8616545,154.579727 L50.695897,146.327515 C53.618503,147.786303 56.6542909,149.043879 59.7906848,150.095212 L60.9099273,162.899848 C64.3833515,163.827939 67.9498364,164.524636 71.5867455,165 L77.5199879,153.603848 C79.1447758,153.714515 80.7796242,153.792485 82.4345939,153.792485 C84.0870485,153.792485 85.721897,153.714515 87.3466848,153.603848 L93.2799273,165 C96.9168364,164.524636 100.483321,163.827939 103.956745,162.899848 L105.078503,150.095212 C108.212382,149.043879 111.24817,147.786303 114.173291,146.327515 L124.005018,154.579727 C127.159018,152.756242 130.179715,150.736576 133.054533,148.525758 L129.191261,136.271939 C131.663655,134.116455 133.982624,131.79497 136.138109,129.322576 L148.394442,133.185848 C150.602745,130.313545 152.622412,127.290333 154.445897,124.138848 L146.1962,114.304606 C147.177109,112.335242 148.034776,110.295455 148.832079,108.228 L134.103352,108.228 Z" id="Fill-4" fill="#008BA6"></path>
                <path d="M139.99937,87.2523909 C139.544127,93.0196333 138.1784,98.5429061 136.115976,103.726633 L162.849521,103.726633 C163.732339,100.366391 164.408915,96.9256636 164.866673,93.411997 L153.470521,87.4787545 C153.583703,85.8539667 153.659158,84.2191182 153.659158,82.5666636 C153.659158,80.9116939 153.583703,79.2768455 153.470521,77.6520576 L164.866673,71.7188152 C164.408915,68.2076636 163.732339,64.7669364 162.849521,61.4066939 L136.168794,61.4066939 C139.287582,69.3193606 140.723733,78.0796333 139.99937,87.2523909" id="Fill-6" fill="#44B1C8"></path>
                <path d="M77.7476091,25.0006303 C102.381003,23.0589333 124.0767,36.5904485 134.172518,56.9053273 L148.833336,56.9053273 C148.036033,54.8353576 147.178367,52.7980848 146.194942,50.8287212 L154.447155,40.9944788 C152.62367,37.8429939 150.604003,34.8197818 148.3957,31.9449636 L136.136852,35.8107515 C133.983882,33.3358424 131.662397,31.0168727 129.190003,28.8613879 L133.055791,16.6050545 C130.180973,14.3967515 127.157761,12.3770848 124.006276,10.5536 L114.172033,18.803297 C111.249427,17.3470242 108.211124,16.0894485 105.077245,15.0381152 L103.958003,2.23347879 C100.482064,1.30538788 96.9180939,0.606175758 93.2811848,0.133327273 L87.3479424,11.5269636 C85.7231545,11.416297 84.0883061,11.3408424 82.4333364,11.3408424 C80.7808818,11.3408424 79.1460333,11.416297 77.5212455,11.5269636 L71.588003,0.133327273 C67.9510939,0.606175758 64.3846091,1.30538788 60.9111848,2.23347879 L59.7894273,15.0381152 C56.6555485,16.0894485 53.6172455,17.3470242 50.6946394,18.803297 L40.8629121,10.5536 C37.7089121,12.3770848 34.6857,14.3967515 31.813397,16.6050545 L35.6766697,28.8613879 C33.2042758,31.0168727 30.8827909,33.3358424 28.7298212,35.8107515 L16.4734879,31.9449636 C14.2651848,34.8197818 12.2455182,37.8429939 10.4220333,40.9944788 L18.6717303,50.8287212 C17.6883061,52.7980848 16.8331545,54.8353576 16.0333364,56.9053273 L30.7645788,56.9053273 C39.6028212,39.2590242 57.229003,26.6178727 77.7476091,25.0006303" id="Fill-8" fill="#008BA6"></path>
            </g>
        </g>
    </g>
</svg>